<svg width="15" height="26" viewBox="0 0 15 26" fill="none" xmlns="http://www.w3.org/2000/svg">
<path d="M14.5927 11.7718L3.23054 0.407958C2.96774 0.144914 2.61694 0 2.24288 0C1.86882 0 1.51802 0.144914 1.25522 0.407958L0.418477 1.24464C-0.126 1.78983 -0.126 2.67592 0.418477 3.22028L9.95959 12.763L0.407891 22.3163C0.145097 22.5793 0 22.93 0 23.3039C0 23.6782 0.145097 24.0289 0.407891 24.2921L1.24464 25.1286C1.50764 25.3916 1.85824 25.5365 2.23229 25.5365C2.60635 25.5365 2.95716 25.3916 3.21995 25.1286L14.5927 13.7543C14.8561 13.4904 15.0008 13.1381 15 12.7636C15.0008 12.3876 14.8561 12.0355 14.5927 11.7718Z" fill="#808080"/>
</svg>
