<svg width="15" height="26" viewBox="0 0 15 26" fill="none" xmlns="http://www.w3.org/2000/svg">
<g clip-path="url(#clip0)">
<path d="M0.407301 14.2282L11.7695 25.592C12.0323 25.8551 12.3831 26 12.7571 26C13.1312 26 13.482 25.8551 13.7448 25.592L14.5815 24.7554C15.126 24.2102 15.126 23.3241 14.5815 22.7797L5.04041 13.237L14.5921 3.6837C14.8549 3.4207 15 3.07 15 2.6961C15 2.3218 14.8549 1.9711 14.5921 1.7079L13.7554 0.871402C13.4924 0.608402 13.1418 0.4635 12.7677 0.4635C12.3937 0.4635 12.0428 0.608402 11.7801 0.871402L0.407301 12.2457C0.143901 12.5096 -0.000798851 12.8619 1.11583e-06 13.2364C-0.000798917 13.6124 0.143901 13.9645 0.407301 14.2282Z" fill="#808080"/>
</g>
<defs>
<clipPath id="clip0">
<rect width="15" height="26" fill="white" transform="translate(15 26) rotate(-180)"/>
</clipPath>
</defs>
</svg>
