<svg width="34" height="34" viewBox="0 0 34 34" fill="none" xmlns="http://www.w3.org/2000/svg">
<g clip-path="url(#clip0)">
<path d="M25.5 12.8407C25.5002 12.2709 25.3877 11.7067 25.1688 11.1805C24.95 10.6544 24.6292 10.1767 24.225 9.77508C23.3978 8.98578 22.2984 8.54541 21.1551 8.54541C20.0118 8.54541 18.9123 8.98578 18.0852 9.77508L1.275 26.5895C0.507762 27.4122 0.0898778 28.5006 0.10942 29.6254C0.128963 30.7501 0.584406 31.8234 1.37976 32.6189C2.17512 33.4145 3.24826 33.8702 4.37302 33.89C5.49778 33.9098 6.5863 33.4921 7.40917 32.7251L24.225 15.9107C24.6299 15.5086 24.951 15.0303 25.1699 14.5034C25.3887 13.9764 25.5009 13.4113 25.5 12.8407ZM5.406 30.7247C5.11962 30.9977 4.73915 31.15 4.3435 31.15C3.94785 31.15 3.56739 30.9977 3.281 30.7247C2.99967 30.4427 2.84168 30.0606 2.84168 29.6622C2.84168 29.2639 2.99967 28.8818 3.281 28.5997L14.2871 17.5922L16.4192 19.7243L5.406 30.7247ZM22.2247 13.9061L18.4167 17.7155L16.2917 15.5834L20.1011 11.7754C20.2369 11.6203 20.4031 11.4947 20.5894 11.4064C20.7757 11.3181 20.9782 11.269 21.1842 11.2622C21.3903 11.2554 21.5956 11.2909 21.7873 11.3666C21.9791 11.4424 22.1533 11.5567 22.299 11.7025C22.4448 11.8482 22.5591 12.0224 22.6349 12.2142C22.7106 12.4059 22.7461 12.6112 22.7393 12.8173C22.7324 13.0233 22.6834 13.2258 22.5951 13.4121C22.5068 13.5984 22.3812 13.7646 22.2261 13.9004L22.2247 13.9061ZM6.88925 4.04466L9.08508 3.41849L9.71125 1.22266C9.81213 0.870315 10.025 0.560394 10.3176 0.339766C10.6103 0.119139 10.9668 -0.000198364 11.3333 -0.000198364C11.6998 -0.000198364 12.0564 0.119139 12.349 0.339766C12.6417 0.560394 12.8545 0.870315 12.9554 1.22266L13.5816 3.41849L15.7774 4.04466C16.1298 4.14554 16.4397 4.3584 16.6603 4.65105C16.8809 4.94371 17.0003 5.30024 17.0003 5.66674C17.0003 6.03325 16.8809 6.38978 16.6603 6.68244C16.4397 6.97509 16.1298 7.18795 15.7774 7.28883L13.5816 7.91499L12.9554 10.1108C12.8545 10.4632 12.6417 10.7731 12.349 10.9937C12.0564 11.2144 11.6998 11.3337 11.3333 11.3337C10.9668 11.3337 10.6103 11.2144 10.3176 10.9937C10.025 10.7731 9.81213 10.4632 9.71125 10.1108L9.08508 7.91499L6.88925 7.28883C6.5369 7.18795 6.22698 6.97509 6.00636 6.68244C5.78573 6.38978 5.66639 6.03325 5.66639 5.66674C5.66639 5.30024 5.78573 4.94371 6.00636 4.65105C6.22698 4.3584 6.5369 4.14554 6.88925 4.04466ZM32.7774 24.2888L30.5816 24.915L29.9554 27.1108C29.8545 27.4632 29.6417 27.7731 29.349 27.9937C29.0564 28.2143 28.6998 28.3337 28.3333 28.3337C27.9668 28.3337 27.6103 28.2143 27.3176 27.9937C27.025 27.7731 26.8121 27.4632 26.7113 27.1108L26.0851 24.915L23.8893 24.2888C23.5369 24.188 23.227 23.9751 23.0064 23.6824C22.7857 23.3898 22.6664 23.0332 22.6664 22.6667C22.6664 22.3002 22.7857 21.9437 23.0064 21.6511C23.227 21.3584 23.5369 21.1455 23.8893 21.0447L26.0851 20.4185L26.7113 18.2227C26.8121 17.8703 27.025 17.5604 27.3176 17.3398C27.6103 17.1191 27.9668 16.9998 28.3333 16.9998C28.6998 16.9998 29.0564 17.1191 29.349 17.3398C29.6417 17.5604 29.8545 17.8703 29.9554 18.2227L30.5816 20.4185L32.7774 21.0447C33.1298 21.1455 33.4397 21.3584 33.6603 21.6511C33.8809 21.9437 34.0003 22.3002 34.0003 22.6667C34.0003 23.0332 33.8809 23.3898 33.6603 23.6824C33.4397 23.9751 33.1298 24.188 32.7774 24.2888ZM25.1529 3.54174L27.0739 2.99349L27.625 1.06966C27.7147 0.763402 27.9012 0.494455 28.1566 0.303121C28.412 0.111788 28.7225 0.0083726 29.0417 0.0083726C29.3608 0.0083726 29.6713 0.111788 29.9267 0.303121C30.1821 0.494455 30.3686 0.763402 30.4583 1.06966L31.0066 2.99066L32.9276 3.53891C33.2338 3.6286 33.5028 3.81512 33.6941 4.07052C33.8855 4.32593 33.9889 4.63646 33.9889 4.95558C33.9889 5.2747 33.8855 5.58523 33.6941 5.84063C33.5028 6.09603 33.2338 6.28256 32.9276 6.37224L31.0066 6.92049L30.4583 8.84574C30.3686 9.152 30.1821 9.42095 29.9267 9.61228C29.6713 9.80362 29.3608 9.90703 29.0417 9.90703C28.7225 9.90703 28.412 9.80362 28.1566 9.61228C27.9012 9.42095 27.7147 9.152 27.625 8.84574L27.0768 6.92616L25.1529 6.37508C24.8467 6.28539 24.5777 6.09887 24.3864 5.84346C24.195 5.58806 24.0916 5.27753 24.0916 4.95841C24.0916 4.63929 24.195 4.32876 24.3864 4.07336C24.5777 3.81796 24.8467 3.63143 25.1529 3.54174Z" fill="white"/>
</g>
<defs>
<clipPath id="clip0">
<rect width="34" height="34" fill="white"/>
</clipPath>
</defs>
</svg>
