<svg width="34" height="34" viewBox="0 0 34 34" fill="none" xmlns="http://www.w3.org/2000/svg">
<g clip-path="url(#clip0)">
<path d="M32.9673 13.3436C30.7701 9.76509 25.7721 3.76126 17.0001 3.76126C8.22807 3.76126 3.23007 9.76509 1.03282 13.3436C0.353571 14.4422 -0.00622559 15.7084 -0.00622559 17C-0.00622559 18.2917 0.353571 19.5578 1.03282 20.6564C3.23007 24.2349 8.22807 30.2388 17.0001 30.2388C25.7721 30.2388 30.7701 24.2349 32.9673 20.6564C33.6466 19.5578 34.0064 18.2917 34.0064 17C34.0064 15.7084 33.6466 14.4422 32.9673 13.3436ZM30.5519 19.1732C28.6649 22.2417 24.3937 27.4054 17.0001 27.4054C9.60649 27.4054 5.33524 22.2417 3.44824 19.1732C3.04468 18.5202 2.83093 17.7677 2.83093 17C2.83093 16.2324 3.04468 15.4799 3.44824 14.8268C5.33524 11.7583 9.60649 6.59459 17.0001 6.59459C24.3937 6.59459 28.6649 11.7527 30.5519 14.8268C30.9555 15.4799 31.1692 16.2324 31.1692 17C31.1692 17.7677 30.9555 18.5202 30.5519 19.1732Z" fill="white"/>
<path d="M17 9.91666C15.599 9.91666 14.2295 10.3321 13.0647 11.1104C11.8998 11.8887 10.9919 12.995 10.4558 14.2893C9.9197 15.5836 9.77942 17.0078 10.0527 18.3819C10.326 19.7559 11.0007 21.018 11.9913 22.0087C12.9819 22.9993 14.244 23.6739 15.6181 23.9472C16.9921 24.2205 18.4163 24.0803 19.7106 23.5441C21.0049 23.008 22.1112 22.1001 22.8895 20.9353C23.6679 19.7704 24.0833 18.4009 24.0833 17C24.081 15.1221 23.334 13.3217 22.0062 11.9938C20.6783 10.6659 18.8779 9.91891 17 9.91666ZM17 21.25C16.1594 21.25 15.3377 21.0007 14.6388 20.5337C13.9399 20.0667 13.3951 19.403 13.0735 18.6264C12.7518 17.8498 12.6676 16.9953 12.8316 16.1709C12.9956 15.3464 13.4004 14.5892 13.9948 13.9948C14.5891 13.4004 15.3464 12.9956 16.1708 12.8317C16.9952 12.6677 17.8498 12.7518 18.6264 13.0735C19.403 13.3952 20.0667 13.9399 20.5337 14.6388C21.0007 15.3377 21.25 16.1594 21.25 17C21.25 18.1272 20.8022 19.2082 20.0052 20.0052C19.2081 20.8022 18.1271 21.25 17 21.25Z" fill="white"/>
</g>
<defs>
<clipPath id="clip0">
<rect width="34" height="34" fill="white"/>
</clipPath>
</defs>
</svg>
