<svg width="30" height="31" viewBox="0 0 30 31" fill="none" xmlns="http://www.w3.org/2000/svg">
<path d="M29.6493 13.1126L15.6768 0.86604C15.2891 0.526343 14.7099 0.526343 14.3222 0.86604L0.349692 13.1126C-0.0769642 13.4865 -0.119704 14.1357 0.254267 14.5625C0.628238 14.9891 1.27747 15.0319 1.70412 14.6578L2.78601 13.7097V28.9902C2.78601 29.5576 3.24595 30.0176 3.8134 30.0176H11.5996H18.3993H26.1855C26.753 30.0176 27.2129 29.5576 27.2129 28.9902V13.7098L28.2948 14.658C28.4898 14.8288 28.7313 14.9128 28.9715 14.9128C29.2572 14.9128 29.5415 14.7944 29.7446 14.5626C30.1188 14.1357 30.076 13.4866 29.6493 13.1126ZM12.627 27.9628V19.4994H17.3719V27.9629L12.627 27.9628ZM25.1583 11.9167V27.9628H19.4269V18.472C19.4269 17.9047 18.9668 17.4446 18.3995 17.4446H11.5998C11.0324 17.4446 10.5724 17.9047 10.5724 18.472V27.9629H4.84088V11.9167C4.84088 11.914 4.84055 11.9116 4.84055 11.909L14.9995 3.00483L25.1586 11.909C25.1587 11.9117 25.1583 11.914 25.1583 11.9167Z" fill="white"/>
<path d="M12.6982 10.2381C12.6982 10.8055 13.1582 11.2655 13.7256 11.2655H16.2736C16.8409 11.2655 17.301 10.8055 17.301 10.2381C17.301 9.67064 16.8409 9.21069 16.2736 9.21069H13.7256C13.1583 9.21069 12.6982 9.67064 12.6982 10.2381Z" fill="white"/>
</svg>
