<svg id="logo_inclucad" xmlns="http://www.w3.org/2000/svg" xmlns:xlink="http://www.w3.org/1999/xlink" viewBox="0 0 281 101" shape-rendering="geometricPrecision" text-rendering="geometricPrecision" width="281" height="101"><style><![CDATA[#logo_inclucad-path3_tr {animation: logo_inclucad-path3_tr__tr 5000ms linear 1 normal forwards;  animation-iteration-count: infinite;}@keyframes logo_inclucad-path3_tr__tr { 0% {transform: translate(50.500011px,50.500175px) rotate(0deg)} 100% {transform: translate(50.500011px,50.500175px) rotate(360deg)} }]]></style><path id="logo_inclucad-path1" d="M121.019000,48L121.019000,10.165000L129.041000,10.165000L129.041000,48L121.019000,48ZM172.129000,48L161.933000,48L145.474000,19.377900L145.241000,19.377900C145.569000,24.432900,145.733000,28.038700,145.733000,30.195300L145.733000,48L138.564000,48L138.564000,10.165000L148.683000,10.165000L165.116000,38.502400L165.297000,38.502400C165.039000,33.585400,164.909000,30.109000,164.909000,28.073200L164.909000,10.165000L172.129000,10.165000L172.129000,48ZM197.750000,16.298300C194.730000,16.298300,192.393000,17.437000,190.736000,19.714400C189.080000,21.974400,188.252000,25.131700,188.252000,29.186000C188.252000,37.622600,191.418000,41.840800,197.750000,41.840800C200.406000,41.840800,203.624000,41.176600,207.402000,39.848100L207.402000,46.576700C204.297000,47.870600,200.829000,48.517600,196.999000,48.517600C191.495000,48.517600,187.286000,46.852700,184.370000,43.522900C181.454000,40.175900,179.997000,35.379700,179.997000,29.134300C179.997000,25.200700,180.713000,21.758800,182.145000,18.808600C183.576000,15.841100,185.630000,13.572400,188.304000,12.002400C190.995000,10.415200,194.144000,9.621580,197.750000,9.621580C201.424000,9.621580,205.116000,10.510100,208.826000,12.287100L206.238000,18.808600C204.823000,18.135700,203.400000,17.549200,201.968000,17.048800C200.536000,16.548500,199.130000,16.298300,197.750000,16.298300ZM215.477000,48L215.477000,10.165000L223.499000,10.165000L223.499000,41.375000L238.845000,41.375000L238.845000,48L215.477000,48ZM276.240000,10.165000L276.240000,34.646500C276.240000,37.441400,275.611000,39.891300,274.351000,41.996100C273.109000,44.100900,271.306000,45.714000,268.942000,46.835400C266.579000,47.956900,263.784000,48.517600,260.558000,48.517600C255.692000,48.517600,251.914000,47.275400,249.223000,44.791000C246.531000,42.289400,245.186000,38.873400,245.186000,34.543000L245.186000,10.165000L253.182000,10.165000L253.182000,33.326700C253.182000,36.242400,253.769000,38.381700,254.942000,39.744600C256.115000,41.107600,258.056000,41.789100,260.765000,41.789100C263.387000,41.789100,265.285000,41.107600,266.458000,39.744600C267.648000,38.364400,268.244000,36.207800,268.244000,33.274900L268.244000,10.165000L276.240000,10.165000Z" fill="rgb(0,201,247)" stroke="none" stroke-width="1"/><path id="logo_inclucad-path2" d="M138.255000,59.926800C134.701000,59.926800,131.906000,61.186200,129.870000,63.705100C127.834000,66.224000,126.816000,69.700400,126.816000,74.134300C126.816000,78.775200,127.791000,82.286100,129.741000,84.667000C131.708000,87.047900,134.546000,88.238300,138.255000,88.238300C139.859000,88.238300,141.412000,88.083000,142.913000,87.772500C144.414000,87.444700,145.975000,87.030600,147.597000,86.530300L147.597000,91.835400C144.630000,92.956900,141.266000,93.517600,137.504000,93.517600C131.966000,93.517600,127.714000,91.844100,124.746000,88.497100C121.779000,85.132800,120.295000,80.328000,120.295000,74.082500C120.295000,70.148900,121.011000,66.707000,122.443000,63.756800C123.892000,60.806600,125.980000,58.546500,128.706000,56.976600C131.432000,55.406600,134.632000,54.621600,138.307000,54.621600C142.171000,54.621600,145.743000,55.432500,149.021000,57.054200L146.795000,62.204100C145.518000,61.600300,144.164000,61.074100,142.732000,60.625500C141.317000,60.159700,139.825000,59.926800,138.255000,59.926800ZM206.781000,93L203.003000,82.493200L188.537000,82.493200L184.836000,93L178.314000,93L192.470000,55.009800L199.199000,55.009800L213.354000,93L206.781000,93ZM201.373000,77.162100L197.827000,66.862300C197.568000,66.172200,197.206000,65.085300,196.740000,63.601600C196.292000,62.117800,195.981000,61.030900,195.809000,60.340800C195.343000,62.462900,194.661000,64.783400,193.764000,67.302200L190.348000,77.162100L201.373000,77.162100ZM276.679000,73.720200C276.679000,79.965700,274.945000,84.744600,271.477000,88.057100C268.010000,91.352400,263.015000,93,256.494000,93L245.909000,93L245.909000,55.165000L257.606000,55.165000C263.628000,55.165000,268.312000,56.786800,271.659000,60.030300C275.006000,63.273800,276.679000,67.837100,276.679000,73.720200ZM270.158000,73.927200C270.158000,64.869600,265.922000,60.340800,257.451000,60.340800L252.094000,60.340800L252.094000,87.798300L256.494000,87.798300C265.603000,87.798300,270.158000,83.174600,270.158000,73.927200Z" fill="rgb(71,83,128)" stroke="none" stroke-width="1"/><g id="logo_inclucad-path3_tr" transform="translate(50.500011,50.500175) rotate(0)"><path id="logo_inclucad-path3" d="M7.265720,25.538700L50.500000,0.577350L93.734300,25.538700L93.734300,75.461300L50.500000,100.423000L7.265720,75.461300L7.265720,25.538700Z" transform="translate(-50.500011,-50.500175)" fill="none" stroke="rgb(151,151,151)" stroke-width="1"/></g><path id="logo_inclucad-path4" d="M31.726800,41.549100L49.484300,51.801400L49.484300,72.305900L31.726800,82.558200L13.969300,72.305900L13.969300,51.801400L31.726800,41.549100Z" fill="rgb(83,121,92)" stroke="none" stroke-width="1"/><path id="logo_inclucad-path5" d="M50.430500,8.977780L68.188000,19.230100L68.188000,39.734600L50.430500,49.986900L32.673000,39.734600L32.673000,19.230100L50.430500,8.977780Z" fill="rgb(0,201,247)" stroke="none" stroke-width="1"/><path id="logo_inclucad-path6" d="M69.134200,41.896200L86.891700,52.148500L86.891700,72.653100L69.134200,82.905400L51.376700,72.653100L51.376700,52.148500L69.134200,41.896200Z" fill="rgb(99,116,179)" stroke="none" stroke-width="1"/><path id="logo_inclucad-path7" d="M34.088500,43.178100L49.392800,52.014100L49.392800,69.686000L34.088500,78.521900L18.784200,69.686000L18.784200,52.014100L34.088500,43.178100Z" fill="rgb(83,121,92)" stroke="none" stroke-width="1"/><path id="logo_inclucad-path8" d="M50.208300,15.106400L65.512600,23.942400L65.512600,41.614300L50.208300,50.450200L34.903900,41.614300L34.903900,23.942400L50.208300,15.106400Z" fill="rgb(0,201,247)" stroke="none" stroke-width="1"/><path id="logo_inclucad-path9" d="M66.328100,43.477300L81.632400,52.313200L81.632400,69.985100L66.328100,78.821100L51.023800,69.985100L51.023800,52.313200L66.328100,43.477300Z" fill="rgb(99,116,179)" stroke="none" stroke-width="1"/><circle id="logo_inclucad-circle1" r="50" transform="matrix(1 0 0 1 50.50000000000000 50.50000000000000)" fill="none" stroke="rgb(151,151,151)" stroke-width="1"/></svg>