<svg width="101" height="101" viewBox="0 0 101 101" fill="none" xmlns="http://www.w3.org/2000/svg">
<path d="M7.26572 25.5387L50.5 0.57735L93.7343 25.5387V75.4613L50.5 100.423L7.26572 75.4613V25.5387Z" stroke="#979797"/>
<path d="M31.7268 41.5491L49.4843 51.8014V72.3059L31.7268 82.5582L13.9693 72.3059V51.8014L31.7268 41.5491Z" fill="#53795C"/>
<path d="M50.4305 8.97778L68.188 19.2301V39.7346L50.4305 49.9869L32.673 39.7346V19.2301L50.4305 8.97778Z" fill="#00C9F7"/>
<path d="M69.1342 41.8962L86.8917 52.1485V72.6531L69.1342 82.9054L51.3767 72.6531V52.1485L69.1342 41.8962Z" fill="#6374B3"/>
<path d="M34.0885 43.1781L49.3928 52.0141V69.686L34.0885 78.5219L18.7842 69.686V52.0141L34.0885 43.1781Z" fill="#53795C"/>
<path d="M50.2082 15.1064L65.5126 23.9424V41.6143L50.2082 50.4502L34.9039 41.6143V23.9424L50.2082 15.1064Z" fill="#00C9F7"/>
<path d="M66.3281 43.4773L81.6324 52.3132V69.9851L66.3281 78.8211L51.0238 69.9851V52.3132L66.3281 43.4773Z" fill="#6374B3"/>
<circle cx="50.5" cy="50.5" r="50" stroke="#979797"/>
</svg>
