<svg id="logo" xmlns="http://www.w3.org/2000/svg" xmlns:xlink="http://www.w3.org/1999/xlink" viewBox="0 0 101 101" shape-rendering="geometricPrecision" text-rendering="geometricPrecision" width="101" height="101"><style><![CDATA[#logo-path1_tr {animation: logo-path1_tr__tr 5000ms linear 1 normal forwards; animation-iteration-count: infinite;}@keyframes logo-path1_tr__tr { 0% {transform: translate(50.500011px,50.500175px) rotate(360deg)} 100% {transform: translate(50.500011px,50.500175px) rotate(0deg)} }]]></style><g id="logo-path1_tr" transform="translate(50.500011,50.500175) rotate(360)"><path id="logo-path1" d="M7.265720,25.538700L50.500000,0.577350L93.734300,25.538700L93.734300,75.461300L50.500000,100.423000L7.265720,75.461300L7.265720,25.538700Z" transform="translate(-50.500011,-50.500175)" fill="none" stroke="rgb(151,151,151)" stroke-width="1"/></g><path id="logo-path2" d="M31.726800,41.549100L49.484300,51.801400L49.484300,72.305900L31.726800,82.558200L13.969300,72.305900L13.969300,51.801400L31.726800,41.549100Z" fill="rgb(83,121,92)" stroke="none" stroke-width="1"/><path id="logo-path3" d="M50.430500,8.977780L68.188000,19.230100L68.188000,39.734600L50.430500,49.986900L32.673000,39.734600L32.673000,19.230100L50.430500,8.977780Z" fill="rgb(0,201,247)" stroke="none" stroke-width="1"/><path id="logo-path4" d="M69.134200,41.896200L86.891700,52.148500L86.891700,72.653100L69.134200,82.905400L51.376700,72.653100L51.376700,52.148500L69.134200,41.896200Z" fill="rgb(99,116,179)" stroke="none" stroke-width="1"/><path id="logo-path5" d="M34.088500,43.178100L49.392800,52.014100L49.392800,69.686000L34.088500,78.521900L18.784200,69.686000L18.784200,52.014100L34.088500,43.178100Z" fill="rgb(83,121,92)" stroke="none" stroke-width="1"/><path id="logo-path6" d="M50.208200,15.106400L65.512600,23.942400L65.512600,41.614300L50.208200,50.450200L34.903900,41.614300L34.903900,23.942400L50.208200,15.106400Z" fill="rgb(0,201,247)" stroke="none" stroke-width="1"/><path id="logo-path7" d="M66.328100,43.477300L81.632400,52.313200L81.632400,69.985100L66.328100,78.821100L51.023800,69.985100L51.023800,52.313200L66.328100,43.477300Z" fill="rgb(99,116,179)" stroke="none" stroke-width="1"/><circle id="logo-circle1" r="50" transform="matrix(1 0 0 1 50.50000000000000 50.50000000000000)" fill="none" stroke="rgb(151,151,151)" stroke-width="1"/></svg>