<svg width="34" height="34" viewBox="0 0 34 34" fill="none" xmlns="http://www.w3.org/2000/svg">
<path d="M33.585 31.5817L25.1289 23.1257C27.4333 20.3073 28.5663 16.7111 28.2935 13.0809C28.0207 9.45062 26.3631 6.06408 23.6635 3.62173C20.9638 1.17939 17.4287 -0.131906 13.7894 -0.0409113C10.15 0.0500838 6.68489 1.5364 4.11068 4.11061C1.53647 6.68483 0.0501448 10.15 -0.0408502 13.7893C-0.131845 17.4287 1.17945 20.9638 3.62179 23.6634C6.06414 26.363 9.45068 28.0207 13.0809 28.2934C16.7112 28.5662 20.3074 27.4332 23.1257 25.1288L31.5818 33.5849C31.849 33.843 32.2068 33.9858 32.5783 33.9825C32.9497 33.9793 33.3051 33.8303 33.5677 33.5677C33.8304 33.305 33.9794 32.9497 33.9826 32.5782C33.9858 32.2068 33.843 31.8489 33.585 31.5817ZM14.1667 25.5C11.9252 25.5 9.73402 24.8353 7.87026 23.59C6.0065 22.3447 4.55388 20.5746 3.69609 18.5037C2.8383 16.4328 2.61386 14.1541 3.05116 11.9556C3.48846 9.75719 4.56785 7.73778 6.15285 6.15279C7.73784 4.56779 9.75725 3.48839 11.9557 3.0511C14.1542 2.6138 16.4329 2.83823 18.5038 3.69603C20.5747 4.55382 22.3447 6.00644 23.59 7.8702C24.8354 9.73396 25.5001 11.9251 25.5001 14.1667C25.4967 17.1714 24.3016 20.0521 22.1769 22.1768C20.0522 24.3015 17.1715 25.4966 14.1667 25.5Z" fill="white"/>
</svg>
